<svg xmlns="http://www.w3.org/2000/svg" width="29.45" height="29.448" viewBox="0 0 29.45 29.448">
  <g transform="translate(-27.05 -138.776)">
    <g transform="translate(27.55 139.274)">
      <rect width="28.45" height="28.45" rx="6" fill="#fff"/>
    </g>
    <g transform="translate(27.55 139.276)">
      <g transform="translate(-3 8)">
        <path d="M14.682,30.44,9.231,28.98a1.056,1.056,0,0,1-.747-1.294l.546-2.039a1.056,1.056,0,0,1,1.294-.747l5.451,1.459a1.826,1.826,0,0,0,.951,0L13.413,14H8.461A5.461,5.461,0,0,0,3,19.461V36.989a5.46,5.46,0,0,0,5.461,5.46H18.847L15.976,31.733a1.834,1.834,0,0,0-1.294-1.293" transform="translate(0 -22)" fill="#1f2c5c" stroke="rgba(0,0,0,0)" stroke-miterlimit="10" stroke-width="1"/>
        <g transform="translate(0 -22)">
          <path d="M20.7,0H8.127l3.312,12.358a1.828,1.828,0,0,0,.816-.472l3.99-3.99a1.055,1.055,0,0,1,1.493,0l1.494,1.494a1.055,1.055,0,0,1,0,1.493l-3.99,3.99a1.832,1.832,0,0,0-.473,1.767l3.164,11.808H20.7a5.46,5.46,0,0,0,5.461-5.46V5.461A5.461,5.461,0,0,0,20.7,0" transform="translate(5.286 14)" fill="#e6002d" stroke="rgba(0,0,0,0)" stroke-miterlimit="10" stroke-width="1"/>
        </g>
      </g>
    </g>
  </g>
</svg>
