<svg xmlns="http://www.w3.org/2000/svg" width="176" height="237" viewBox="0 0 176 237">
  <g transform="translate(-18 -18)">
    <rect width="176" height="237" rx="8" transform="translate(18 18)" fill="#e8e8e8"/>
    <g transform="translate(55.638 47.211)">
      <g>
        <path d="M138.949,460.589a23.117,23.117,0,0,1-3.836,1.708,27.015,27.015,0,0,1-15.388.23,23.143,23.143,0,0,1-4.587-1.96,5.073,5.073,0,0,1-.57-3.634,26,26,0,0,0,25.045,0,7.324,7.324,0,0,1-.236,2.5,7.2,7.2,0,0,1-.428,1.161" transform="translate(-70.439 -281.218)" fill="#656565"/>
        <path d="M139.8,451c-.018,2.009-6.805,3.9-12.465,3.916-5.726.012-12.562-1.9-12.581-3.916s6.714-4.1,12.523-4.1,12.541,2.094,12.523,4.1" transform="translate(-70.625 -275.042)" fill="#ccc"/>
        <path d="M133.129,372.852a26.869,26.869,0,0,1-20.261.281q-2.533-26.8-5.065-53.608l27.719-.422q-1.2,26.874-2.392,53.749" transform="translate(-66.346 -196.391)" fill="#fff"/>
        <path d="M135.521,316.233c0,1.152-6.205,2.087-13.859,2.087s-13.859-.935-13.859-2.087,6.2-2.087,13.859-2.087,13.859.935,13.859,2.087" transform="translate(-66.346 -193.34)" fill="#42210b"/>
        <path d="M151.975,73.83c.419,22.35-3.08,59.067-6.242,87.281h-1.556c3.947-33.488,5.433-58.2,6.046-74.881.246-6.7.761-23.248,1.225-23.242.323,0,.474,8.053.526,10.842" transform="translate(-88.734 -38.766)" fill="#94a472"/>
        <path d="M218.29,147.954a36.1,36.1,0,0,1-.86,3.992,10.413,10.413,0,0,0-3.269-5.506c-1.168-.971-1.871-1.015-4.673-3.071-1.237-.908-1.855-1.362-2.491-1.883a15.474,15.474,0,0,0-2.025-1.584c-.814-.485-2.18-1.3-3.063-.757a1.224,1.224,0,0,0-.59.876c-.08,1.051,1.9,1.77,3.894,2.944,5.107,3.01,5.771,6.355,8.741,9.258a1.462,1.462,0,0,1,.528,1.035c-.032.616-.707,1.037-1.009,1.237a15.558,15.558,0,0,0-3.3,3.1,64.127,64.127,0,0,1-4.2-7.537c-.728-1.557-1.512-3.425-3.373-4.3a22.369,22.369,0,0,0-2.157-.709,39.2,39.2,0,0,1-3.664-1.409c.926-4.377.318-7.088-.477-8.79a10.837,10.837,0,0,1-1.232-3.941,8.854,8.854,0,0,1,.352-3.616c1.391-3.826,7.294-6.146,11.73-4.719a8.114,8.114,0,0,1,3.7,2.337c1.372,1.581.963,2.558,2.3,4.48,1.477,2.118,2.673,1.934,4,3.634.9,1.153,1.792,3.08,1.577,6.436a13.574,13.574,0,0,0-7.089-4.543c-2.58-.592-3.554.2-7.09-.62-.563-.13-2.2-.535-2.443-.069-.11.213.107.54.138.585a1.83,1.83,0,0,0,1.376.62c1.851.158,3.649.893,5.506.86s4.78.832,9.567,4.818a36.115,36.115,0,0,1-.413,6.849" transform="translate(-120.023 -75.171)" fill="#295918"/>
        <path d="M220.819,150.02c-.129.258-4.491-3.1-11.037-3.129-4.91-.023-8.352,1.838-8.443,1.58-.1-.276,3.681-2.831,8.443-2.921,6.342-.12,11.176,4.192,11.037,4.47" transform="translate(-123.912 -89.577)" fill="#4d7f33"/>
        <path d="M222.965,168.187c-.146.163-4.924-6.186-13.261-7.9-2.342-.48-4.889-.58-4.88-.7a18,18,0,0,1,6,.255c7.708,1.532,12.29,8.18,12.144,8.344" transform="translate(-126.058 -98.133)" fill="#4d7f33"/>
        <path d="M234.419,117.23a7.118,7.118,0,0,0-2.06-3.5,8.023,8.023,0,0,0-2.763-1.5,15.906,15.906,0,0,0-8.435-.555c-2.09.49-3.5,1.32-3.635,1.068-.129-.236,1-1.152,1.931-1.739,1.418-.9,1.864-.719,3.008-1.477,1.481-.981,1.306-1.672,2.429-2.293a5.549,5.549,0,0,1,4.119-.193c3.769,1.1,5.068,5.3,5.216,5.8a9.394,9.394,0,0,1,.19,4.391" transform="translate(-133.869 -65.681)" fill="#5b8b29"/>
        <path d="M115.085,237.121a116.23,116.23,0,0,1,7.9,20.085l-.677.4c-1.821-4.272-4.654-10.695-8.428-18.384-6.287-12.809-10.674-19.938-10.325-20.149.381-.23,6.356,7.809,11.528,18.044" transform="translate(-63.722 -134.827)" fill="#506f30"/>
        <path d="M142.948,194.592c-.925,14.2-2.272,25.98-3.388,34.406l-2.239-.12c1.007-8.368,2.373-20.123,3.854-34.286,1.477-14.12,2.247-22.773,2.552-22.752.364.026-.07,11.893-.778,22.752" transform="translate(-84.513 -105.758)" fill="#93ab59"/>
        <path d="M154.237,242.324a141.658,141.658,0,0,0-3.1,20.023l-1.8.02a104.906,104.906,0,0,1,3.872-21.722c2.19-7.563,4.994-14.04,5.255-13.95s-2.16,6.629-4.221,15.63" transform="translate(-91.906 -139.518)" fill="#709046"/>
        <path d="M152.35,224.733a129.677,129.677,0,0,0-5.187,30.533l-1.249.168a75.007,75.007,0,0,1,3.126-25.7c2.29-7.46,5.817-14.6,6.159-14.473.273.105-1.468,4.879-2.848,9.469" transform="translate(-89.747 -132.482)" fill="#cadf7a"/>
        <path d="M115.458,260.64l-.521,2.319q-3.458-9.694-7.443-19.813-3.233-8.187-6.542-15.929a103.514,103.514,0,0,1,14.507,33.423" transform="translate(-62.13 -139.84)" fill="#94b276"/>
        <path d="M81.884,4.4c4.708-.358,7.048.861,8.312,2.192,2.819,2.968,2.319,8.632,5.391,10.663.275.182.938.608,1.46.377.948-.421.767-2.715.706-3.485A16.25,16.25,0,0,0,94.51,5.982c-1.879-2.479-3.353-3.176-3.067-3.8.437-.952,4.228-.111,7.063.518,2.246.5,3.382.759,4,1.318,2.049,1.848,1.757,5.487,1.482,8.895-.3,3.691-1.182,6.124-.13,6.779a1.688,1.688,0,0,0,1.426-.04c2.543-1,3.886-6.281,2.637-10.454-.843-2.815-2.675-4.49-2.146-5.05.2-.208.707-.25,2.805.764,3.969,1.919,5.953,2.878,6.562,4.4,1.719,4.294-6.372,10.987-5.338,12.049.242.248.823.025,1.511-.238,3.672-1.407,5.148-5.745,5.365-6.415.739-2.272.476-3.592,1.13-3.767.868-.232,2.323,1.825,3.061,3.626,1.6,3.9,1.115,9.729-2.025,11.725-1.282.815-3.036,1.009-5.839,1.319a15.965,15.965,0,0,0-4.191.894,14.425,14.425,0,0,0-1.637.725,2.37,2.37,0,0,1,.6.4c.553.514,1.006,1.439.757,1.926-.438.858-3.05.349-4.62.043-2.232-.434-2.89-.865-3.945-1.09-3.871-.823-5.154,2.82-9.961,3.32-4.7.489-9.225-2.394-9.728-4.256a5.676,5.676,0,0,0-.758-1.839c-.7-1.079-1.4-1.287-1.352-1.515.24-1.093,16.652,2.819,17.849-.162a1.431,1.431,0,0,0-.157-1.155c-.973-1.735-5.128-.872-9.525-.416a70.887,70.887,0,0,1-11.535.236c-.366,1.159-1.078,2.03-1.828,2.054-.866.027-1.472-1.088-2.08-2.207-.742-1.364-1.4-2.572-1-3.379.432-.872,2.046-1.18,13.049-.366,2.836.21,5.946.468,6.3-.556a1.008,1.008,0,0,0-.162-.792c-.776-1.394-3.163-1.269-6.519-1.512-3.3-.239-4.957-.358-5.913-.768-3.444-1.475-5.911-5.386-5.913-8.294,0-.5.071-1.072.019-2.234-.112-2.468-.571-2.915-.249-3.756.476-1.246,2.032-1.7,3.84-2.227C76.293.126,78.149-.415,79.5.461c1.3.838.919,2.19,1.864,5.017,1.393,4.167,4.491,8.056,5.981,7.629.582-.167.812-.961.848-1.083.6-2.054-2.027-5.047-6.31-7.629" transform="translate(-42.947 0)" fill="#467928"/>
        <path d="M114.16,38.577a14.691,14.691,0,0,1,1.043,2.379l-.406-.045a20.1,20.1,0,0,0-1.544-2.8,23.972,23.972,0,0,0-10.226-8.3C92.1,24.549,84.2,14.515,84.163,14.561s9.823,8.008,14.914,11.632c1.782,1.268,2.673,1.9,3.92,2.66,1.914,1.162,2.8,1.511,4.49,2.738a28.841,28.841,0,0,1,2.612,2.154,18.482,18.482,0,0,1,4.061,4.833" transform="translate(-51.798 -8.961)" fill="#88ba6d"/>
        <path d="M121.254,24.879a13.134,13.134,0,0,1,1.291,6.516,30.724,30.724,0,0,0-2.6-7.881c-1.22-2.346-2.437-3.724-2.362-3.78a13.894,13.894,0,0,1,3.674,5.145" transform="translate(-72.362 -12.144)" fill="#8ab47d"/>
        <path d="M144.146,18.056c3.293,6.984.288,14.851.081,14.821-.183-.027,2.044-6.171-.378-13.306-.988-2.911-2.553-5.408-2.381-5.505s1.7,1.91,2.678,3.99" transform="translate(-87.058 -8.655)" fill="#8ab47d"/>
        <path d="M109.329,58.1c-.015-.162-3.536.122-8.231.223-7.7.166-11.444-.312-11.457-.148-.018.228,7.206,1.5,15.586.6a22.493,22.493,0,0,0,4.1-.67" transform="translate(-55.169 -35.729)" fill="#8ab47d"/>
        <path d="M173.651,43.053a26.309,26.309,0,0,1-3.419,4.736c-1.523,1.579-2.081,1.577-5.408,4.21a34.966,34.966,0,0,0-4.108,3.578,39.776,39.776,0,0,0,4.132-2.88c4.9-3.559,5.709-4.3,6.548-5.39a11.568,11.568,0,0,0,2.254-4.254" transform="translate(-98.911 -26.496)" fill="#8ab47d"/>
        <path d="M124.049,89.86a29.712,29.712,0,0,0-3.273,6.311,30.538,30.538,0,0,0-1.7,14.013c-10.038-11.4-13.409-23.9-8.757-30.81,1.855-2.756,6.814-7.343,12.108-6.054,3.789.923,5.843,4.392,6.461,5.543a21.114,21.114,0,0,1,2.227-3.966c1.742-2.44,4.4-6.158,8.608-6.839,5.345-.864,10.221,3.646,12.113,7.464,1.288,2.6,1.62,5.738.8,6.179-.546.292-1.322-.747-3.243-1.1a6.98,6.98,0,0,0-2.753.062c.657.37,4.372,2.492,4.894,4.038.074.219.288.851,0,1.162-.2.217-.471.092-.734.245-.689.4-.127,2-.49,2.2-.6.341-2.386-4.126-6.362-5.751-2.288-.934-5.392-1.232-5.751-.428-.144.324.184.768.334.971.908,1.227,2.663,1.351,3.351,1.429,2.842.32,5.241,2.008,10.038,5.385,1.815,1.277,2.723,1.916,3.1,2.555,2.516,4.229-2.726,11.323-3.833,12.776a8.406,8.406,0,0,0,.456-3.65c-.183-1.741-.963-3.435-5.557-7.877-6.825-6.6-9.137-6.758-10.194-6.708-1.1.052-3.061.433-3.159,1.154-.072.53.89,1.06,1.227,1.254,4.94,2.843,9.685,10.615,10.1,11.3a25.191,25.191,0,0,1,2.671,6.249c-6.612,5.2-9.349,5.546-10.576,4.7-.873-.6-.876-1.735-2.564-4.594a29.011,29.011,0,0,0-2.443-3.517c.6,7.5-.21,9.565-1.189,9.873-.91.286-1.683-1.039-5.341-2.671-2.393-1.068-2.641-.759-3.258-1.389-2.6-2.658.4-9.616,1.228-11.537a28.291,28.291,0,0,1,3.652-6.162,2,2,0,0,0-.905-1.617,1.849,1.849,0,0,0-1.282-.192" transform="translate(-66.629 -41.82)" fill="#6ba730"/>
        <path d="M125.265,104.107a27.96,27.96,0,0,0-9.179,7.59A21.552,21.552,0,0,1,133.5,101.542a29.882,29.882,0,0,0-8.236,2.565" transform="translate(-71.443 -62.48)" fill="#96c941"/>
        <path d="M133.593,119.054c-3.5,4.743-3.081,10.168-3.279,10.14s-.983-5.941,2.472-10.644c3.4-4.628,9.137-5.688,9.227-5.5s-5.01,1.395-8.419,6.009" transform="translate(-80.066 -69.561)" fill="#96c941"/>
        <path d="M181.944,80.9a15.252,15.252,0,0,0-8.876.2,17.116,17.116,0,0,0-8.123,5.4,20.655,20.655,0,0,1,6.677-4.355A23.128,23.128,0,0,1,181.944,80.9" transform="translate(-101.514 -49.459)" fill="#96c941"/>
        <path d="M150.213,139.141a29.018,29.018,0,0,0-1.69,8.811c-.182-.013-.929-5.716,1.931-11.1a11.655,11.655,0,0,1,2.423-3.386c.148.09-1.451,2.425-2.665,5.679" transform="translate(-91.27 -82.137)" fill="#96c941"/>
        <path d="M167.711,134.878a29.02,29.02,0,0,1,1.69,8.811c.182-.013.929-5.716-1.931-11.1a11.655,11.655,0,0,0-2.423-3.386c-.148.09,1.451,2.425,2.665,5.679" transform="translate(-101.572 -79.513)" fill="#96c941"/>
        <path d="M163.892,109.349c.472,5.465.591,10.869.4,10.882-.252.017-1.046-8.934-1.319-12.2-.235-2.809-.809-9.672-.594-9.695.192-.02,1.029,5.37,1.517,11.014" transform="translate(-99.904 -60.52)" fill="#96c941"/>
        <path d="M72.81,210.317a74.194,74.194,0,0,0-10-14.448,74.384,74.384,0,0,0-17.48-14.509,3.1,3.1,0,0,0-1.372.694,3.4,3.4,0,0,0-1.06,2.531c-.876-1.414-2.3-3.637-4.221-6.263-3.949-5.41-5.305-6.132-7.113-9.642-1.22-2.369-2.853-5.641-2.529-9.879.189-2.467.953-4.124,2.137-6.69,1.832-3.971,3.987-8.643,8.432-9.823a8.18,8.18,0,0,1,3.608-.132c5.936,1.138,8.135,8.658,8.268,9.136a9.432,9.432,0,0,1,7.587-3.477c.285.018,4.342.351,6.48,3.635.3.466,1.045,1.723,1.246,4.9a21.378,21.378,0,0,1-1.481,9.962c-2.9,6.912-8.911,10.172-12.014,11.854a32.33,32.33,0,0,1-7.419,2.9,73.339,73.339,0,0,1,11.38,7.917,74.559,74.559,0,0,1,17.232,21.23l-1.682.105" transform="translate(-17.845 -87.403)" fill="#2e5d17"/>
        <path d="M76.436,179.682a120.6,120.6,0,0,0-2.9,14.586c-.2-.024-.241-6.59,2.084-14.288a37.419,37.419,0,0,1,3.051-7.665c.127.046-1.049,3.115-2.232,7.367" transform="translate(-45.203 -106.05)" fill="#6c9b62"/>
        <path d="M71.527,162.839a8.393,8.393,0,0,1-3.572-.744c-4.069-1.6-6.267-5.273-6.1-5.433.15-.144,2.168,2.689,6.474,4.763,1.708.823,3.243,1.269,3.2,1.414" transform="translate(-38.062 -96.414)" fill="#6c9b62"/>
        <path d="M85.786,175.592a8.394,8.394,0,0,1,3.649.01c4.307.744,7.2,3.9,7.07,4.094-.117.172-2.665-2.2-7.3-3.363-1.839-.462-3.433-.59-3.419-.741" transform="translate(-52.797 -107.961)" fill="#6c9b62"/>
        <path d="M81.848,185.159c.084-.168,2.134.473,3.922,1.565,4.317,2.635,6.084,7.268,5.865,7.416-.2.135-1.931-3.5-6.424-6.727-1.782-1.28-3.442-2.1-3.363-2.254" transform="translate(-50.371 -113.939)" fill="#6c9b62"/>
        <path d="M79.786,195.1a7.658,7.658,0,0,1,2.656,2.008c2.734,2.9,3.113,6.8,2.915,6.863a23.711,23.711,0,0,0-3.483-6.456c-1.088-1.345-2.18-2.312-2.088-2.415" transform="translate(-49.101 -120.07)" fill="#6c9b62"/>
        <path d="M63.79,191.693a7.658,7.658,0,0,0-3.282-.565c-3.989-.008-7.087,2.378-7,2.568a23.71,23.71,0,0,1,7.092-1.875c1.725-.126,3.178.009,3.19-.129" transform="translate(-32.93 -117.629)" fill="#6c9b62"/>
        <path d="M55.087,175.98c-.02.108-1.171-.047-5.89-.491-3.761-.354-4.7-.413-6.1-.118a9.9,9.9,0,0,0-3.857,1.6,14.63,14.63,0,0,0-2.446,2.446,6.944,6.944,0,0,1,2.536-3.742c2.643-2.037,6.2-1.567,10.07-1.056,3.078.407,5.721,1.2,5.69,1.362" transform="translate(-22.637 -107.197)" fill="#6c9b62"/>
        <path d="M69.142,150.7a11.09,11.09,0,0,0,4.416,4.816c-.076.087-4.437-2.062-5.46-5.676a7.471,7.471,0,0,0-1.374-3.188c-.749-.916-1.662-1.458-1.574-1.6.077-.127.88.116,1.5.511,1.694,1.082,1.585,3.035,2.493,5.14" transform="translate(-40.092 -89.246)" fill="#6c9b62"/>
        <path d="M93.588,166.992a11.088,11.088,0,0,1-6.5.68c0,.115,4.69,1.4,7.85-.632a7.469,7.469,0,0,1,3.142-1.476c1.168-.19,2.211.009,2.241-.158.026-.146-.736-.5-1.461-.61-1.986-.313-3.2,1.222-5.273,2.2" transform="translate(-53.599 -101.398)" fill="#6c9b62"/>
        <path d="M6.072,242.076a35.042,35.042,0,0,1-3.306,3.907,16.767,16.767,0,0,0-.6-5.008c-.5-1.805-.886-1.964-1.4-3.506-.31-.926-1.807-5.753.5-9.216a10.135,10.135,0,0,1,2.905-2.5,22.011,22.011,0,0,1,8.114-4.007c2.333-.511,7.482-1.64,10.118,1.4,1.524,1.76,2.108,4.8.9,6.712-1.153,1.827-2.98,1.1-7.813,3.306-2.469,1.124-4.4,2-6.141,3.989-1.321,1.5-1.4,2.354-3.276,4.927" transform="translate(0 -136.079)" fill="#a7cd92"/>
        <path d="M14.316,234.688a25.306,25.306,0,0,0-6.691,10.684,21.077,21.077,0,0,1,7.069-11.71,18.027,18.027,0,0,1,6.1-3.454,35.177,35.177,0,0,0-6.476,4.479" transform="translate(-4.69 -141.678)" fill="#c4e5a2"/>
        <path d="M168.628,179.894a3.974,3.974,0,0,1,1.095-2.8,4.412,4.412,0,0,1,3.5-.859c4.109.369,10.5,6.157,11.344,13.791.695,6.283-2.67,11.087-3.758,12.639a21.537,21.537,0,0,1-7.287,6.491,55.744,55.744,0,0,1-11.4-11.138c-3.244-4.259-4.112-6.734-4.5-8.089-.488-1.7-2.051-7.157.8-11.451a6.868,6.868,0,0,1,4.284-3.253,4.8,4.8,0,0,1,5.921,4.668" transform="translate(-96.472 -107.777)" fill="#4d7f33"/>
        <path d="M189.889,196.365c1.3,4.6,1.458,8.661,1.248,8.7s-.668-3.5-2.383-9.293c-1.523-5.141-2.786-7.873-2.621-7.942.2-.083,2.375,3.665,3.756,8.539" transform="translate(-114.547 -115.596)" fill="#668d45"/>
        <path d="M196.69,190.6a10.732,10.732,0,0,0-8.916-1.061,7.2,7.2,0,0,1,8.916,1.061" transform="translate(-115.565 -115.987)" fill="#668d45"/>
        <path d="M204.276,199.95a13.884,13.884,0,0,0-11.531-1.373c-.044-.167,2.717-1.731,6.019-1.33a8.855,8.855,0,0,1,5.512,2.7" transform="translate(-118.624 -121.355)" fill="#668d45"/>
        <path d="M176.979,202.2a14.514,14.514,0,0,1,2.344-2.993c1.337-1.237,2.621-1.845,2.544-2-.06-.115-.889.107-1.621.5a6.806,6.806,0,0,0-3.267,4.489" transform="translate(-108.912 -121.355)" fill="#668d45"/>
        <path d="M176.982,211.445a17.863,17.863,0,0,1,2.887-3.686c1.647-1.522,3.228-2.272,3.133-2.457-.073-.142-1.094.131-2,.615-3.083,1.65-4.2,5.433-4.024,5.529" transform="translate(-108.912 -126.329)" fill="#668d45"/>
        <rect dth="10.693" height="1.547" transform="translate(49.54 122.466)" fill="#42210b"/>
      </g>
    </g>
  </g>
</svg>
