<svg xmlns="http://www.w3.org/2000/svg" width="176" height="237" viewBox="0 0 176 237">
  <g transform="translate(-18 -18)">
    <rect width="176" height="237" rx="8" transform="translate(18 18)" fill="#e8e8e8"/>
    <g transform="translate(25.289 95)">
      <g>
        <path d="M161.423,291.425c0,11.384-36.136,20.613-80.711,20.613S0,302.809,0,291.425s36.136-20.613,80.711-20.613,80.711,9.229,80.711,20.613" transform="translate(0 -213.025)" fill="#aac747" fill-rule="evenodd"/>
        <path d="M371.4,348.667a7.681,7.681,0,1,1-7.681-7.681,7.681,7.681,0,0,1,7.681,7.681" transform="translate(-280.064 -268.225)" fill="#fff" fill-rule="evenodd"/>
        <path d="M371.4,348.667a7.681,7.681,0,1,1-7.681-7.681A7.681,7.681,0,0,1,371.4,348.667Z" transform="translate(-280.064 -268.225)" fill="none" stroke="#1a1311" stroke-miterlimit="10" stroke-width="1"/>
        <path d="M373.177,361.7a1.476,1.476,0,0,0,.119-1.128c-.1-.68-.166-1.367-.229-2.051a.734.734,0,0,0-.321-.617,1.39,1.39,0,0,0,.958-.3c.576-.3,1.157-.595,1.742-.883.271-.134.572-.224.726-.535a.693.693,0,0,0,.28.608c.519.525,1.052,1.04,1.547,1.587a1.326,1.326,0,0,0,1.184.386c.414-.029.83-.046,1.246-.046.517,0,.7-.1.881-.6.17-.465.333-.935.469-1.412a2.168,2.168,0,0,0,.018-.555c.4.229.842.455,1.252.725a5.682,5.682,0,0,1,.8.667.855.855,0,0,1,.134.338,6.743,6.743,0,0,1,.348,2.709,2.259,2.259,0,0,0,.02.371,1.381,1.381,0,0,0-.277.054q-.522.217-1.037.453c-.18.084-.351.188-.491.263a8.048,8.048,0,0,0-1.254-2.631.7.7,0,0,0-.67-.361c-.607.029-1.214.052-1.82.08a.69.69,0,0,0-.589.4c-.418.769-.83,1.54-1.241,2.313a.783.783,0,0,0,.03.782c-.023-.019-.057-.031-.071-.055a.927.927,0,0,0-.747-.453c-.723-.113-1.448-.217-2.166-.351a.775.775,0,0,0-.838.234m.764-3.609a.54.54,0,0,0,.541.545.716.716,0,0,0,.634-.667.475.475,0,0,0-.456-.466.777.777,0,0,0-.719.588" transform="translate(-293.208 -280.161)" fill="#1a1311" fill-rule="evenodd"/>
        <path d="M367.713,386.122a.7.7,0,0,0,.726.3c.414-.04.826-.087,1.24-.118a.674.674,0,0,1,.247.066c.061.021.121.076.181.072a1.928,1.928,0,0,0,1.134-.258c-.013.183-.025.362-.038.54l.046,0c.007-.07.014-.141.021-.212h.039c.049.651.1,1.3.147,1.943-.494.332-.985.643-1.45.991-.139.1-.2.316-.3.476-.034.056-.066.134-.118.154a6.886,6.886,0,0,1-2.037.461,8.722,8.722,0,0,1-1.782-.048,7.408,7.408,0,0,1-2.357-.765,7.027,7.027,0,0,1-1.486-1,7.921,7.921,0,0,1-1.643-1.951,3.282,3.282,0,0,1-.4-1.937c.01-.129.006-.259.009-.385a4.068,4.068,0,0,0,1.643.945.57.57,0,0,0,.594-.155.678.678,0,0,0-.045.674,9.774,9.774,0,0,0,1.121,2.008.857.857,0,0,0,.528.415,3.937,3.937,0,0,0,.662.077,3.77,3.77,0,0,0,2.442-.951c.255-.215.506-.435.766-.645a.381.381,0,0,0,.157-.521c-.02-.058-.036-.118-.055-.177m-.064,4.357c.009.014.017.028.027.043l.962-.59a.122.122,0,0,1,0-.018l-.388.153c-.12-.07-.069.06-.24.184-.114.083-.238.153-.358.229" transform="translate(-283.086 -302.414)" fill="#1a1311" fill-rule="evenodd"/>
        <path d="M382.341,341.678a3.442,3.442,0,0,1,2.518-.677,7.788,7.788,0,0,1,2.171.4.626.626,0,0,1,.486.6c.01.153.035.3.053.465a6.318,6.318,0,0,0-1.763-.109c-.34.009-.681.058-1.018.1a.6.6,0,0,0-.519.328.4.4,0,0,0-.237-.478,4.889,4.889,0,0,0-1.691-.629" transform="translate(-300.756 -268.232)" fill="#1a1311" fill-rule="evenodd"/>
        <path d="M359.859,352.712c-.255-.118-.411.029-.56.185a6.4,6.4,0,0,0-1.286,1.944c-.01.022-.021.044-.026.053-.362-.5-.148-.99.02-1.483a7.563,7.563,0,0,1,1.479-2.539,1.741,1.741,0,0,1,1.039-.662,5.5,5.5,0,0,0-.783,1.722c-.026.1-.042.193-.071.288a.356.356,0,0,0,.187.492" transform="translate(-281.443 -275.482)" fill="#1a1311" fill-rule="evenodd"/>
        <path d="M422.937,393.685l-.513.853-.041-.025.515-.851.039.023" transform="translate(-332.253 -309.661)" fill="#1a1311" fill-rule="evenodd"/>
        <path d="M31.54,19.354s-4.015,3.86-3.243,7.72A25.65,25.65,0,0,0,32,35.1l.618,1.39,3.243.618.154-5.1s5.868,4.17,6.64,5.25a58.548,58.548,0,0,1,2.779,5.868l1.39,3.4s5.405,0,6.486-1.39,7.257-2.78,8.8-2.316,3.243-2.471,3.243-2.471-4.478-9.265-5.25-10.346S53,18.428,53,18.428l4.323-2.934s.31-4.324-2.316-4.941S39.57,14.568,39.57,14.568" transform="translate(-22.182 -8.256)" fill="#3d4e8b" fill-rule="evenodd"/>
        <path d="M132.863,220.616s.619,6.949,1.236,7.566,4.015,2.316,5.25,1.7,3.86-1.545,3.86-1.545l-1.081-5.559-.463-1.544Z" transform="translate(-104.512 -173.54)" fill="#ffd793" fill-rule="evenodd"/>
        <path d="M186.3,209.319l-12.661,4.324-1.7-8.184a33.957,33.957,0,0,1,6.949-.463c2.161.309,6.331-2.471,6.331-2.471l2.47.927s1.235,5.713-1.39,5.868" transform="translate(-135.252 -159.309)" fill="#fff" fill-rule="evenodd"/>
        <path d="M233.526,195.867s3.551,4.787,1.081,5.713c0,0,5.559,5.714,7.1,3.706s1.853-3.088-1.853-8.338-3.243-4.169-3.243-4.169a4.078,4.078,0,0,0-2.625,1.081,1.585,1.585,0,0,0-.463,2.008" transform="translate(-183.557 -151.571)" fill="#1f3a7d" fill-rule="evenodd"/>
        <path d="M157.855,244.5l3.243,1.853-2.78,6.485-6.64-4.786Z" transform="translate(-119.313 -192.325)" fill="#ffd793" fill-rule="evenodd"/>
        <path d="M225.244,303.458a3.673,3.673,0,0,1-.308,3.088c-.927,1.7-1.081,2.163-2.625,2.934s-3.552,2.162-2.162,2.316,5.867,1.081,7.1-.155,5.1-4.787,5.559-5.713a27.748,27.748,0,0,0,1.081-4.169l-4.478-1.544s-.464,2.934-4.169,3.243" transform="translate(-172.805 -236.154)" fill="#1f3a7d" fill-rule="evenodd"/>
        <path d="M37.878,28.2a27.069,27.069,0,0,0,2.78,3.4A7.691,7.691,0,0,0,43.9,33.446c1.081.154,1.39.464,1.853-.154l.463-.618h.463a3.729,3.729,0,0,0,2.007-2.625,4.985,4.985,0,0,0-.772-3.706,3.5,3.5,0,0,0,0-2.316c-.463-1.081-1.235-.772-1.235-.772a5.238,5.238,0,0,0-2.625-.309c-1.7.155-6.794-.772-6.177,5.25" transform="translate(-29.755 -18.025)" fill="#ffd793" fill-rule="evenodd"/>
        <path d="M30.872,10.955s1.39-.154,1.7-.618,1.544,1.081,1.853-.309,1.235-1.235,1.235-1.235.772.309,1.544-1.235.674-.748,1.544-1.39c1.265-.932.894-3.6.43-3.75s-.892-.883-1.82-1.191-4.324-1.39-5.868.309S27.938,5.55,27.938,7.558a4.259,4.259,0,0,0,.926,2.934l.464-.618L30.1,12.5Z" transform="translate(-21.976 -0.475)" fill-rule="evenodd"/>
        <path d="M153.851,7s2.933,2.78,2.316,4.941l.927.154s4.324,6.485,5.25,8.338-.618,3.243-.463,4.633-1.081,3.706.154,3.86,1.853-3.4,1.853-3.4a2.482,2.482,0,0,1,1.235,2.162c.154,1.7.464,3.551,1.081,2.779s-.309-3.706-.309-3.706,1.545,5.558,2.008,3.706a4.874,4.874,0,0,0-.463-3.4s1.853,4.169,2.007,2.934a8.293,8.293,0,0,0-.927-3.4s2.007,3.4,1.853,2.008a7.1,7.1,0,0,0-1.39-2.934,7.55,7.55,0,0,0-1.235-3.551c-1.081-1.39-8.184-15.6-9.883-16.059S153.851,7,153.851,7" transform="translate(-121.022 -4.702)" fill="#ffd793" fill-rule="evenodd"/>
        <path d="M37.785,115.3s1.39,5.713-.463,5.868a7.245,7.245,0,0,1-3.243-.463l-1.39-1.544-.772-1.853s-1.544.309-1.235-.927,0-1.544.154-2.007-.463-2.316,0-2.625.927-1.853.927-1.853l1.39,1.39c.927.927,1.39,3.4,1.39,3.4s2.471,0,3.243.618" transform="translate(-24.103 -86.448)" fill="#ffd793" fill-rule="evenodd"/>
        <path d="M40.375,152.678s1.464-.232,1.926.077.925,1.387,1.464,1.464,1.464.154,1.464.154-1.079,1-2,.539a20.311,20.311,0,0,1-2.85-2.234" transform="translate(-31.76 -120.034)" fill="#fdb242" fill-rule="evenodd"/>
        <path d="M33.281,138.564v-.385l.77-1.079-1.233.539-.385.924.771.77Z" transform="translate(-25.513 -107.845)" fill="#fdb242" fill-rule="evenodd"/>
        <path d="M32.071,129.847l1.772-1.772-.154.539L32.3,130.232Z" transform="translate(-25.227 -100.746)" fill="#fdb242" fill-rule="evenodd"/>
        <path d="M31.245,121.751l.231-1.155-.077-.462-.54.385-.231,1.541Z" transform="translate(-24.093 -94.499)" fill="#fdb242" fill-rule="evenodd"/>
        <path d="M139.295,255.878s6.009.385,6.7.077l.308.693s-6.01,1-7.011-.77" transform="translate(-109.572 -201.278)" fill="#fdb242" fill-rule="evenodd"/>
        <path d="M159.554,260.922l4.159,2s-1.31,1.772-1.926,1.848-4.622-3.312-4.622-3.312-.232-.385.308-.77a4.388,4.388,0,0,1,2.08-.231Z" transform="translate(-123.59 -204.858)" fill="#fdb242" fill-rule="evenodd"/>
        <path d="M166.221,27.619l1.346.337,6.058,11.106-1.01.673s-3.365-8.75-6.563-10.938Z" transform="translate(-130.62 -21.726)" fill="#fdb242" fill-rule="evenodd"/>
        <path d="M77.144,49.518a19.4,19.4,0,0,0,1.47-3.486c0-.626.035-1.7.035-1.7a6.9,6.9,0,0,1,.487,2.679c-.173.94-.678,2.692-1.992,2.512" transform="translate(-60.683 -34.868)" fill="#fdb242" fill-rule="evenodd"/>
        <path d="M77.024,115.339l6.173-.2-.8,1.195,2.987,2.589,1.991-.8-.6,2.19,1.2,3.982-.6,2.987-2.145,1.559L82.2,121.313Z" transform="translate(-60.588 -90.571)" fill="#1f2c5c" fill-rule="evenodd"/>
        <path d="M184.494,253.23s1.544-.926,5.4,1.39a18.345,18.345,0,0,1,6.023,6.486s5.1,2.624,6.331,2.624c0,0-.463,3.243-3.243,3.243s-3.4.463-3.4.463l-12.816-7.875Z" transform="translate(-143.789 -199.05)" fill="#fff" fill-rule="evenodd"/>
        <path d="M116.944,154.643s1.853,9.573,2.316,10.345l1.081.309,8.647.772s2.934-2.625,3.243-3.86,4.633-11.581,2.934-12.662-10.192,1.853-11.272,2.316-6.948,2.78-6.948,2.78" transform="translate(-91.99 -117.45)" fill="#302d2c" fill-rule="evenodd"/>
        <path d="M127.888,180.472l-1.363,7.357-.545-1.09.545-1.975-.749-.681,1.022-1.635.2-2.929,1.431-.954Z" transform="translate(-98.937 -140.462)" fill="#1a1311" fill-rule="evenodd"/>
        <path d="M501.78,261.7l12.957-9.087s.336.673,1.683.168-.841-4.038-1.514-4.712-2.356,0-2.356,0-10.1,4.712-10.265,5.385-.5,8.245-.5,8.245" transform="translate(-394.708 -194.898)" fill="#fff" fill-rule="evenodd"/>
        <path d="M556.981,232.3s1.178-3.534,3.2-3.029,2.861,3.87,2.861,3.87,3.87,6.226,3.365,8.077-1.683,1.01-1.683,1.01l-4.88-4.039Z" transform="translate(-438.13 -180.31)" fill-rule="evenodd"/>
        <path d="M461.561,293.1s0,5.553,3.029,5.553a9.3,9.3,0,0,0,5.553-2.356l.841-3.7-9.087-.842Z" transform="translate(-363.071 -229.498)" fill="#ffd793" fill-rule="evenodd"/>
        <path d="M403.993,138.81l-4.582,16.275s-1.579,2.844-1.264,4.425,2.527,2.528,3.16,2.686.79-.475.316-.948.158-.475,0-1.265a8.425,8.425,0,0,0-.632-1.738l1.422,1.106s.474,0,.474-1.264a29.922,29.922,0,0,0,0-3.793c-.158-.632,4.424-7.426,4.424-7.426l1.422-7.111Z" transform="translate(-313.156 -109.19)" fill="#ffd793" fill-rule="evenodd"/>
        <path d="M418.967,54.47s-2.356,2.692-2.356,4.039,2.019,9.76,2.019,9.76h3.87l4.375,6.9-.169,10.265s11.779-1.178,13.8-1.683a46.92,46.92,0,0,0,5.721-2.188l-3.2-7.067-1.851-14.471,2.692-.5,1.541-5.354s-7.935-4.406-11.806-5.247a30.165,30.165,0,0,0-5.553-.842s-1.667,4.708-4.022,5.549a17.41,17.41,0,0,1-5.065.845" transform="translate(-327.713 -37.817)" fill="#e6002d" fill-rule="evenodd"/>
        <path d="M461.551,199.067,459.2,215.222l9.255,1.514,1.851-3.029,8.75.5,1.514-13.294s-1.851-6.563-2.356-7.068-16.659,5.216-16.659,5.216" transform="translate(-361.21 -152.461)" fill="#9f0120" fill-rule="evenodd"/>
        <path d="M510.454,283.868s1.851,6.226,2.861,7.236a4.1,4.1,0,0,1,1.178,1.851l4.375-3.87v-4.712Z" transform="translate(-401.531 -223.295)" fill="#ffd793" fill-rule="evenodd"/>
        <path d="M533.756,308.314s5.553,4.712,6.058,7.068,3.534,13.125,3.534,13.125l-4.712,1.178s-2.188-5.553-3.2-7.236-6.058-10.265-6.058-10.265Z" transform="translate(-416.419 -242.525)" fill="#fff" fill-rule="evenodd"/>
        <path d="M564.355,399.782s-1.515,4.375-2.188,4.543,2.524,2.692,5.385,1.515a12.959,12.959,0,0,0,4.712-3.534l-.5-3.2-1.683-1.683a24.411,24.411,0,0,1-3.7,2.019,16.3,16.3,0,0,0-2.019.337" transform="translate(-442.138 -312.622)" fill-rule="evenodd"/>
        <path d="M527.891,76.608s7.426,3.95,7.11,5.373-6.479,9.164-6.479,9.164-1.106,3-2.054,3.792-.779,1.021-.779,1.021-1.434.876-1.275-.073a9.455,9.455,0,0,1,.474-1.738s-.847,2.994-1.242,1.381c-.088-.361-.56-.169-.716-.538a3.6,3.6,0,0,1-.18-1.111s.017,2.212-1,.43a1.989,1.989,0,0,1,.574-2.616c.08-.079-.655-.145-.538-.251.269-.244,1.091-.651,1.469-.968a22.749,22.749,0,0,1,2.742-1.858l3.476-6-3.634-1.106Z" transform="translate(-410.192 -60.261)" fill="#ffd793" fill-rule="evenodd"/>
        <path d="M398.3,34.8s2.362,5.106,1.888,4.474a6.494,6.494,0,0,1,1.272,3.743l1.9-.632,1.9,1.9s1.58.948,2.528-.316,1.106,1.264,1.106,1.264,2.37.159,3.318-1.58a22.893,22.893,0,0,0,1.58-5.214l-2.055-1.58-2.054-1.264s-1.58-1.422-2.212-.632-3,.948-3,.948-5.846-3.16-6.163-1.106" transform="translate(-313.31 -26.831)" fill="#ffd793" fill-rule="evenodd"/>
        <path d="M399.516.666s-3.87.168-4.543,1.346-1.515.841-1.683,2.524-.337,1.01-.337,2.356a1.683,1.683,0,0,0,.842,1.683,24.158,24.158,0,0,0,2.861,1.01c.841.168,2.524,0,3.87.168a3.2,3.2,0,0,1,2.019,1.01l.842,1.178a8.007,8.007,0,0,1,.168-2.692c.336-.673,1.916-.487,1.916-.487l1.45,1.16s.673-2.692-.168-4.207-.5-7.741-7.236-5.048" transform="translate(-309.103 0.001)" fill="#1a1311" fill-rule="evenodd"/>
        <path d="M426.074,142.708l.354,3.485,1.988.994-1.789,5.766s2.386-2.982,2.386-3.778.994-5.567.994-5.567l-.8-.8Z" transform="translate(-335.157 -112.256)" fill="#fdb242" fill-rule="evenodd"/>
        <path d="M415.879,189.79l-.2,3.38-.994-1.193Z" transform="translate(-326.199 -149.292)" fill="#fdb242" fill-rule="evenodd"/>
        <path d="M555.363,98.476l-5.17,8.947a19.231,19.231,0,0,0-.4,2.386c0,.6,4.971-7.357,4.971-7.357l1.79-2.983Z" transform="translate(-432.477 -77.463)" fill="#fdb242" fill-rule="evenodd"/>
        <path d="M485.7,301.6l-.2,3.778,3.976-2.188-1.391-1.591Z" transform="translate(-381.904 -237.247)" fill="#fdb242" fill-rule="evenodd"/>
        <path d="M525.755,313.781l-2.982-.994,1.41,2.916Z" transform="translate(-411.222 -246.043)" fill="#fdb242" fill-rule="evenodd"/>
        <path d="M442.73,54.1l1.173-4.872a4.509,4.509,0,0,0,1.193-1.392c.2-.6,1.584-.846,1.584-.846l-.788,4.425.6,3.38-2.652.569-.331-1.166Z" transform="translate(-348.258 -36.961)" fill="#fdb242" fill-rule="evenodd"/>
      </g>
    </g>
  </g>
</svg>
