<svg xmlns="http://www.w3.org/2000/svg" xmlns:xlink="http://www.w3.org/1999/xlink" width="176" height="237" viewBox="0 0 176 237">
  <defs>
    <clipPath>
      <rect width="132.455" height="107.732" fill="none"/>
    </clipPath>
  </defs>
  <g transform="translate(-18 -18)">
    <rect width="176" height="237" rx="8" transform="translate(18 18)" fill="#e8e8e8"/>
    <g transform="translate(39.773 82.634)" clip-path="url(#clip-path)">
      <path d="M115.668,75.912H11.591A5.815,5.815,0,0,1,5.776,70.1V5.817A5.816,5.816,0,0,1,11.591,0H115.668a5.816,5.816,0,0,1,5.815,5.817V70.1a5.815,5.815,0,0,1-5.815,5.815" transform="translate(2.598 0)" fill="#d9e5f0"/>
      <path d="M112.041,72.195H13.5a5.816,5.816,0,0,1-5.817-5.815V7.774A5.816,5.816,0,0,1,13.5,1.957h98.54a5.816,5.816,0,0,1,5.815,5.817V66.379a5.815,5.815,0,0,1-5.815,5.815" transform="translate(3.456 0.88)" fill="#232e40"/>
      <rect width="100.294" height="61.223" transform="translate(16.081 7.652)" fill="#8496b1"/>
      <path d="M129.229,84.157h-126A3.222,3.222,0,0,1,.135,80.018L7.64,54.72a3.221,3.221,0,0,1,3.089-2.307H121.724a3.222,3.222,0,0,1,3.089,2.307l7.506,25.3a3.222,3.222,0,0,1-3.089,4.139" transform="translate(0 23.574)" fill="#8496b1"/>
      <path d="M70.7,74.228h-38.2l.826-8.713H69.878Z" transform="translate(14.621 29.467)" fill="#d9e5f0"/>
      <path d="M117.155,69.078H7.476l3.916-15.027H113.317Z" transform="translate(3.363 24.311)" fill="#232e40"/>
      <path d="M18.292,64.818H8.19l.623-2.433H18.8Z" transform="translate(3.684 28.06)" fill="#d9e5f0"/>
      <path d="M70.885,64.818h-10.1l-.249-2.433h9.986Z" transform="translate(27.227 28.06)" fill="#d9e5f0"/>
      <path d="M19.625,59.308H9.588l.577-2.254h9.927Z" transform="translate(4.313 25.661)" fill="#d9e5f0"/>
      <path d="M21.366,61.11H9.131L9.724,58.8h12.1Z" transform="translate(4.107 26.446)" fill="#d9e5f0"/>
      <path d="M24.35,62.94H8.667l.607-2.37H24.781Z" transform="translate(3.898 27.243)" fill="#d9e5f0"/>
      <path d="M87.784,62.94H69.177l-.383-2.37H87.19Z" transform="translate(30.943 27.243)" fill="#d9e5f0"/>
      <path d="M37.25,64.818H30.8l.248-2.433h6.373Z" transform="translate(13.854 28.06)" fill="#d9e5f0"/>
      <path d="M22.1,64.818H15.654l.5-2.433h6.372Z" transform="translate(7.041 28.06)" fill="#d9e5f0"/>
      <path d="M27.15,64.818H20.7l.416-2.433h6.373Z" transform="translate(9.312 28.06)" fill="#d9e5f0"/>
      <path d="M32.2,64.818H25.753l.332-2.433h6.373Z" transform="translate(11.583 28.06)" fill="#d9e5f0"/>
      <path d="M57.125,64.818H50.677l-.083-2.433h6.373Z" transform="translate(22.757 28.06)" fill="#d9e5f0"/>
      <path d="M62.2,64.818H55.753l-.165-2.433h6.372Z" transform="translate(25.002 28.06)" fill="#d9e5f0"/>
      <path d="M74.675,64.409H68.228l-.171-1.115h6.414Z" transform="translate(30.611 28.468)" fill="#d9e5f0"/>
      <path d="M84.435,64.409H77.988l-.245-1.115h6.412Z" transform="translate(34.967 28.468)" fill="#d9e5f0"/>
      <path d="M79.535,64.409H73.089l-.209-1.115h6.412Z" transform="translate(32.78 28.468)" fill="#d9e5f0"/>
      <path d="M79.322,63.486H72.916l-.2-1.1h6.372Z" transform="translate(32.704 28.06)" fill="#d9e5f0"/>
      <path d="M16.638,55.452H10.587l.275-1.079H16.88Z" transform="translate(4.762 24.456)" fill="#d9e5f0"/>
      <path d="M21.3,55.452H15.249l.239-1.079h6.019Z" transform="translate(6.859 24.456)" fill="#d9e5f0"/>
      <path d="M25.966,55.452H19.913l.2-1.079h6.019Z" transform="translate(8.957 24.456)" fill="#d9e5f0"/>
      <path d="M30.63,55.452H24.577l.167-1.079h6.019Z" transform="translate(11.054 24.456)" fill="#d9e5f0"/>
      <path d="M35.293,55.452H29.24l.129-1.079h6.019Z" transform="translate(13.152 24.456)" fill="#d9e5f0"/>
      <path d="M39.956,55.452H33.9L34,54.373h6.019Z" transform="translate(15.25 24.456)" fill="#d9e5f0"/>
      <path d="M44.62,55.452H38.567l.057-1.079h6.019Z" transform="translate(17.347 24.456)" fill="#d9e5f0"/>
      <path d="M49.284,55.452H43.231l.02-1.079h6.019Z" transform="translate(19.444 24.456)" fill="#d9e5f0"/>
      <path d="M53.953,55.452H47.9l-.017-1.079H53.9Z" transform="translate(21.537 24.456)" fill="#d9e5f0"/>
      <path d="M58.628,55.452H52.575l-.054-1.079h6.019Z" transform="translate(23.623 24.456)" fill="#d9e5f0"/>
      <path d="M63.3,55.452H57.25l-.09-1.079h6.019Z" transform="translate(25.709 24.456)" fill="#d9e5f0"/>
      <path d="M67.977,55.452H61.926L61.8,54.373h6.019Z" transform="translate(27.796 24.456)" fill="#d9e5f0"/>
      <path d="M72.653,55.452H66.6l-.164-1.079h6.019Z" transform="translate(29.882 24.456)" fill="#d9e5f0"/>
      <path d="M77.327,55.452H71.275l-.2-1.079h6.019Z" transform="translate(31.968 24.456)" fill="#d9e5f0"/>
      <path d="M82,55.452H75.949l-.236-1.079h6.019Z" transform="translate(34.054 24.456)" fill="#d9e5f0"/>
      <path d="M26.511,62.94H20.147l.419-2.37h6.292Z" transform="translate(9.062 27.243)" fill="#d9e5f0"/>
      <path d="M31.436,62.94H25.071l.338-2.37H31.7Z" transform="translate(11.276 27.243)" fill="#d9e5f0"/>
      <path d="M36.36,62.94H30l.258-2.37h6.292Z" transform="translate(13.491 27.243)" fill="#d9e5f0"/>
      <path d="M41.246,62.94H34.881l.177-2.37h6.294Z" transform="translate(15.689 27.243)" fill="#d9e5f0"/>
      <path d="M46.17,62.94H39.806l.1-2.37h6.292Z" transform="translate(17.904 27.243)" fill="#d9e5f0"/>
      <path d="M51.095,62.94H44.73l.016-2.37h6.292Z" transform="translate(20.119 27.243)" fill="#d9e5f0"/>
      <path d="M55.973,62.94H49.609l-.064-2.37h6.292Z" transform="translate(22.284 27.243)" fill="#d9e5f0"/>
      <path d="M60.923,62.94H54.558l-.145-2.37h6.292Z" transform="translate(24.474 27.243)" fill="#d9e5f0"/>
      <path d="M65.873,62.94H59.508l-.226-2.37h6.292Z" transform="translate(26.664 27.243)" fill="#d9e5f0"/>
      <path d="M70.763,62.94H64.4l-.306-2.37h6.292Z" transform="translate(28.828 27.243)" fill="#d9e5f0"/>
      <path d="M24.5,61.119H18.211l.445-2.312h6.215Z" transform="translate(8.191 26.45)" fill="#d9e5f0"/>
      <path d="M29.309,61.119H23.024l.367-2.312h6.215Z" transform="translate(10.356 26.45)" fill="#d9e5f0"/>
      <path d="M34.122,61.119H27.837l.289-2.312H34.34Z" transform="translate(12.52 26.45)" fill="#d9e5f0"/>
      <path d="M38.934,61.119H32.649l.212-2.312h6.214Z" transform="translate(14.685 26.45)" fill="#d9e5f0"/>
      <path d="M43.747,61.119H37.462l.133-2.312H43.81Z" transform="translate(16.85 26.45)" fill="#d9e5f0"/>
      <path d="M48.559,61.119H42.275l.055-2.312h6.215Z" transform="translate(19.014 26.45)" fill="#d9e5f0"/>
      <path d="M53.379,61.119H47.094l-.023-2.312h6.215Z" transform="translate(21.172 26.45)" fill="#d9e5f0"/>
      <path d="M58.216,61.119H51.931l-.1-2.312h6.215Z" transform="translate(23.312 26.45)" fill="#d9e5f0"/>
      <path d="M63.053,61.119H56.768l-.18-2.312H62.8Z" transform="translate(25.452 26.45)" fill="#d9e5f0"/>
      <path d="M67.889,61.119H61.6l-.257-2.312h6.214Z" transform="translate(27.593 26.45)" fill="#d9e5f0"/>
      <path d="M72.726,61.119H66.441l-.335-2.312H72.32Z" transform="translate(29.733 26.45)" fill="#d9e5f0"/>
      <path d="M77.563,61.119H71.278l-.413-2.312H77.08Z" transform="translate(31.874 26.45)" fill="#d9e5f0"/>
      <path d="M23.31,59.325H17.1l.458-2.256H23.7Z" transform="translate(7.693 25.668)" fill="#d9e5f0"/>
      <path d="M28.049,59.325H21.843l.381-2.256h6.138Z" transform="translate(9.824 25.668)" fill="#d9e5f0"/>
      <path d="M32.788,59.325H26.582l.306-2.256h6.138Z" transform="translate(11.956 25.668)" fill="#d9e5f0"/>
      <path d="M37.528,59.325H31.321l.229-2.256h6.138Z" transform="translate(14.088 25.668)" fill="#d9e5f0"/>
      <path d="M42.267,59.325H36.06l.154-2.256h6.138Z" transform="translate(16.219 25.668)" fill="#d9e5f0"/>
      <path d="M47.006,59.325H40.8l.078-2.256h6.138Z" transform="translate(18.351 25.668)" fill="#d9e5f0"/>
      <path d="M51.745,59.325H45.539V57.069h6.138Z" transform="translate(20.482 25.668)" fill="#d9e5f0"/>
      <path d="M56.507,59.325H50.3l-.074-2.256h6.138Z" transform="translate(22.591 25.668)" fill="#d9e5f0"/>
      <path d="M61.27,59.325H55.063l-.149-2.256h6.138Z" transform="translate(24.699 25.668)" fill="#d9e5f0"/>
      <path d="M66.033,59.325H59.826L59.6,57.069h6.138Z" transform="translate(26.807 25.668)" fill="#d9e5f0"/>
      <path d="M70.8,59.325H64.589l-.3-2.256h6.138Z" transform="translate(28.915 25.668)" fill="#d9e5f0"/>
      <path d="M75.558,59.325H69.352l-.377-2.256h6.138Z" transform="translate(31.024 25.668)" fill="#d9e5f0"/>
      <path d="M16.27,57.544H10.14l.563-2.2h6.063Z" transform="translate(4.561 24.893)" fill="#d9e5f0"/>
      <path d="M20.993,57.544h-6.13l.489-2.2h6.062Z" transform="translate(6.685 24.893)" fill="#d9e5f0"/>
      <path d="M25.715,57.544h-6.13l.413-2.2h6.063Z" transform="translate(8.809 24.893)" fill="#d9e5f0"/>
      <path d="M30.438,57.544h-6.13l.338-2.2h6.063Z" transform="translate(10.934 24.893)" fill="#d9e5f0"/>
      <path d="M35.161,57.544h-6.13l.264-2.2h6.062Z" transform="translate(13.058 24.893)" fill="#d9e5f0"/>
      <path d="M39.884,57.544h-6.13l.19-2.2h6.062Z" transform="translate(15.182 24.893)" fill="#d9e5f0"/>
      <path d="M44.607,57.544h-6.13l.115-2.2h6.063Z" transform="translate(17.306 24.893)" fill="#d9e5f0"/>
      <path d="M49.33,57.544H43.2l.039-2.2H49.3Z" transform="translate(19.43 24.893)" fill="#d9e5f0"/>
      <path d="M54.063,57.544h-6.13l-.035-2.2H53.96Z" transform="translate(21.544 24.893)" fill="#d9e5f0"/>
      <path d="M58.81,57.544H52.68l-.11-2.2h6.063Z" transform="translate(23.645 24.893)" fill="#d9e5f0"/>
      <path d="M63.555,57.544h-6.13l-.184-2.2H63.3Z" transform="translate(25.746 24.893)" fill="#d9e5f0"/>
      <path d="M68.3,57.544h-6.13l-.26-2.2h6.063Z" transform="translate(27.847 24.893)" fill="#d9e5f0"/>
      <path d="M73.047,57.544h-6.13l-.333-2.2h6.062Z" transform="translate(29.948 24.893)" fill="#d9e5f0"/>
      <path d="M77.793,57.544h-6.13l-.409-2.2h6.063Z" transform="translate(32.049 24.893)" fill="#d9e5f0"/>
      <path d="M82.539,57.544h-6.13l-.483-2.2h6.062Z" transform="translate(34.15 24.893)" fill="#d9e5f0"/>
      <path d="M73.7,57.069l.444,2.207h2.475l.56,2.626h7.746l-1.211-4.832Z" transform="translate(33.148 25.669)" fill="#d9e5f0"/>
      <path d="M56.3,64.818H35.924l.162-2.433H56.23Z" transform="translate(16.158 28.06)" fill="#d9e5f0"/>
    </g>
  </g>
</svg>
