<svg xmlns="http://www.w3.org/2000/svg" xmlns:xlink="http://www.w3.org/1999/xlink" width="176" height="237" viewBox="0 0 176 237">
  <defs>
    <clipPath>
      <rect width="166.973" height="195.054" fill="none"/>
    </clipPath>
  </defs>
  <g transform="translate(-18 -18)">
    <rect width="176" height="237" rx="8" transform="translate(18 18)" fill="#e8e8e8"/>
    <g transform="translate(27.026 45.945)" clip-path="url(#clip-path)">
      <path d="M214.072,82.3a1.431,1.431,0,0,1,1-1.75l11.67-3.148a1.421,1.421,0,0,1,.746,2.743L215.813,83.3a1.833,1.833,0,0,1-.37.047,1.423,1.423,0,0,1-1.371-1.045" transform="translate(-133.577 -48.279)" fill="#241e1c"/>
      <path d="M210.42,102.539v30.29c0,1.553-2.61,2.807-5.826,2.807s-5.829-1.254-5.829-2.807v-30.29Z" transform="translate(-124.056 -63.998)" fill="#241e1c"/>
      <path d="M210.42,97.882c0,1.553-2.61,2.81-5.826,2.81s-5.829-1.257-5.829-2.81,2.613-2.8,5.829-2.8,5.826,1.257,5.826,2.8" transform="translate(-124.056 -59.341)" fill="#2b2726"/>
      <path d="M208.334,42.34c-.153-2.819-.394-5.891-.4-9,.009-4.669.529-9.488,2.887-13.7,2.341-4.217,6.589-7.629,13.332-9.356l10.724-2.528a1.735,1.735,0,0,1,.84,3.368l-10.709,2.52c-6.046,1.591-9.25,4.322-11.161,7.7s-2.446,7.588-2.443,12c0,2.936.235,5.943.394,8.807a1.743,1.743,0,0,1-1.633,1.832h-.1a1.741,1.741,0,0,1-1.732-1.636" transform="translate(-129.78 -4.806)" fill="#d4d5d5"/>
      <path d="M312.253,120.056a1.419,1.419,0,0,1,1-1.744l11.664-3.157a1.421,1.421,0,0,1,.743,2.743l-11.67,3.157a1.79,1.79,0,0,1-.376.05,1.413,1.413,0,0,1-1.362-1.048" transform="translate(-194.856 -71.843)" fill="#241e1c"/>
      <path d="M308.608,140.312V170.6c0,1.547-2.613,2.813-5.832,2.813s-5.823-1.266-5.823-2.813v-30.29Z" transform="translate(-185.338 -87.573)" fill="#241e1c"/>
      <path d="M308.608,135.645c0,1.544-2.613,2.8-5.832,2.8s-5.823-1.257-5.823-2.8,2.611-2.81,5.823-2.81,5.832,1.254,5.832,2.81" transform="translate(-185.338 -82.907)" fill="#2b2726"/>
      <path d="M306.512,80.107c-.159-2.822-.4-5.888-.4-9,0-4.669.531-9.476,2.881-13.7s6.6-7.638,13.337-9.364l10.721-2.516a1.732,1.732,0,1,1,.843,3.359l-10.709,2.517c-6.046,1.594-9.25,4.334-11.167,7.7-1.9,3.377-2.441,7.585-2.431,12,0,2.933.226,5.94.388,8.806a1.734,1.734,0,0,1-1.635,1.827h-.091a1.72,1.72,0,0,1-1.732-1.633" transform="translate(-191.053 -28.384)" fill="#d4d5d5"/>
      <path d="M109.4,381.776l-15.919,22.6-1.1-2.854,15.921-22.6Z" transform="translate(-57.659 -236.497)" fill="#d4d5d5"/>
      <path d="M99.668,380.258,83.749,402.845l3.131,1.125,15.043-22.1Z" transform="translate(-52.271 -237.331)" fill="#8e8e8f"/>
      <path d="M92.448,410.427c1,.379,4.235,1.915,4.235,1.915l.5,2.147-2.614,3.432s-3.829-1.9-4.413-2.264a3.055,3.055,0,0,1-.7-2.023,3.111,3.111,0,0,1,2.44-3.236,1.741,1.741,0,0,1,.555.029" transform="translate(-55.831 -256.136)" fill="#8e8e8f"/>
      <path d="M104.669,417.967a3.112,3.112,0,0,1-2.437,3.239c-1.351.121-2.443-1.1-2.443-2.76a3.1,3.1,0,0,1,2.443-3.227c1.345-.132,2.437,1.1,2.437,2.748" transform="translate(-62.282 -259.146)" fill="#d4d5d5"/>
      <path d="M220.654,225.13a1.534,1.534,0,0,1,.9,1.131,4.677,4.677,0,0,1-.452,2.986L202.542,269.4a5.152,5.152,0,0,1-2.3,2.511,1.74,1.74,0,0,1-1.31.112l-14.494-5.365c-.552-.209-4.734-1.777-4.813-2.525s3.938-.675,4.372-1.594l18.552-40.148a5.807,5.807,0,0,1,1.715-2.155c.652-.476,11.7,2.748,12.254,2.951Z" transform="translate(-112.108 -137.424)" fill="#b6000e"/>
      <path d="M312.459,385.6l-2.981,1.979-23.65-15.64,2.981-1.991,23.65,10.683Z" transform="translate(-178.394 -230.899)" fill="#8e8e8f"/>
      <path d="M309.478,390.89l-23.65-10.671V375.25l23.65,10.68Z" transform="translate(-178.395 -234.206)" fill="#d4d5d5"/>
      <path d="M169.184,394.494,79.7,431.964v-4.972l89.489-37.469Z" transform="translate(-49.74 -243.114)" fill="#d4d5d5"/>
      <path d="M158.606,382.422,69.117,419.891l3.976,2.669,89.489-37.469Z" transform="translate(-43.138 -238.682)" fill="#8e8e8f"/>
      <path d="M64.967,483.254l-2.975,1.988L38.4,466.921l2.981-1.976,23.589,13.349Z" transform="translate(-23.965 -290.187)" fill="#8e8e8f"/>
      <path d="M61.993,488.524,38.4,475.174V470.2l23.594,13.352Z" transform="translate(-23.966 -293.469)" fill="#d4d5d5"/>
      <path d="M156.977,415.613V393.765h5.714v19.111" transform="translate(-97.974 -245.762)" fill="#8e8e8f"/>
      <path d="M142.74,415.718l-.279-21.187h5.708v23.3" transform="translate(-88.915 -246.24)" fill="#d4d5d5"/>
      <path d="M215.788,219.023a1.515,1.515,0,0,1,.893,1.122,4.653,4.653,0,0,1-.455,3l-18.547,40.138a5.179,5.179,0,0,1-2.3,2.511,1.76,1.76,0,0,1-1.31.117l-14.495-5.368a1.671,1.671,0,0,1-.966-1.521,5.049,5.049,0,0,1,.525-2.6l18.547-40.139a5.743,5.743,0,0,1,1.709-2.164,2.1,2.1,0,0,1,1.9-.464Z" transform="translate(-111.464 -133.299)" fill="#dc0013"/>
      <path d="M148.309,359.224s-.07,5.952-.015,6.158a.472.472,0,0,1,0,.27c-.126.452-.8.954-1.95,1.363L127.692,373.8a11.838,11.838,0,0,1-3.994.628,4.777,4.777,0,0,1-1.656-.294l-15.32-6.49c-.376-.158-.569-.364-.6-.593-.018-.132,0-6.463,0-6.463l20.62-1.882a12.247,12.247,0,0,1,3.11-.611,6.1,6.1,0,0,1,2.543.276Z" transform="translate(-66.232 -223.486)" fill="#b6000e"/>
      <path d="M147.723,348.229c.481.2.664.484.578.793-.126.453-.8.954-1.95,1.362L127.7,357.167a11.556,11.556,0,0,1-3.994.628,5.018,5.018,0,0,1-1.656-.285l-15.32-6.5c-.593-.247-.731-.616-.481-1.007a3.66,3.66,0,0,1,1.85-1.14l18.652-6.792a12.1,12.1,0,0,1,3.11-.608,6.062,6.062,0,0,1,2.543.273Z" transform="translate(-66.239 -213.107)" fill="#dc0013"/>
      <path d="M121.953,379.971c1,.352,6.181,2.625,6.181,2.625l.5,2.141-2.613,3.521s-5.773-2.631-6.357-2.957a3.012,3.012,0,0,1-.7-2.015,3.235,3.235,0,0,1,2.446-3.315,2.14,2.14,0,0,1,.546,0" transform="translate(-74.247 -237.141)" fill="#2b2726"/>
      <path d="M139.341,389.368a3.234,3.234,0,0,1-2.44,3.315c-1.348.179-2.44-1.016-2.44-2.669a3.236,3.236,0,0,1,2.44-3.312c1.348-.188,2.44,1.016,2.44,2.666" transform="translate(-83.922 -241.341)" fill="#373433"/>
      <path d="M140.476,390.609a2.656,2.656,0,0,1-2,2.713c-1.1.15-2-.831-2-2.185a2.657,2.657,0,0,1,2-2.71c1.107-.153,2,.828,2,2.182" transform="translate(-85.179 -242.42)" fill="#2b2726"/>
      <path d="M140.837,391.8a1.933,1.933,0,0,1-1.456,1.97c-.8.106-1.45-.6-1.45-1.58a1.924,1.924,0,0,1,1.45-1.973c.8-.106,1.456.6,1.456,1.583" transform="translate(-86.087 -243.54)" fill="#d4d5d5"/>
      <path d="M141.425,393.754a.723.723,0,0,1-.558.746c-.306.047-.555-.226-.555-.608a.743.743,0,0,1,.555-.752c.311-.044.558.232.558.614" transform="translate(-87.573 -245.369)" fill="#241e1c"/>
      <path d="M95.427,368.34c1,.344,6.181,2.616,6.181,2.616l.5,2.141-2.613,3.521s-5.773-2.631-6.357-2.963a2.962,2.962,0,0,1-.7-2,3.248,3.248,0,0,1,2.44-3.324,1.8,1.8,0,0,1,.549.009" transform="translate(-57.694 -229.877)" fill="#2b2726"/>
      <path d="M112.8,377.72a3.236,3.236,0,0,1-2.44,3.315c-1.348.176-2.446-1.016-2.446-2.669a3.247,3.247,0,0,1,2.446-3.318c1.348-.182,2.44,1.016,2.44,2.672" transform="translate(-67.353 -234.068)" fill="#373433"/>
      <path d="M113.94,378.96a2.654,2.654,0,0,1-2,2.716c-1.113.15-2.006-.834-2.006-2.176a2.658,2.658,0,0,1,2.006-2.725c1.1-.138,2,.834,2,2.185" transform="translate(-68.616 -235.15)" fill="#2b2726"/>
      <path d="M114.3,380.154a1.925,1.925,0,0,1-1.445,1.97c-.8.106-1.456-.6-1.456-1.58a1.93,1.93,0,0,1,1.456-1.976c.793-.106,1.445.614,1.445,1.586" transform="translate(-69.527 -236.27)" fill="#d4d5d5"/>
      <path d="M45.395,422.548c1.348.47,8.342,3.533,8.342,3.533l.675,2.886-3.527,4.754s-7.8-3.536-8.589-3.988a4.039,4.039,0,0,1-.946-2.713c0-2.226,1.477-4.235,3.3-4.481a2.539,2.539,0,0,1,.746.009" transform="translate(-25.809 -263.706)" fill="#2b2726"/>
      <path d="M68.879,435.223c0,2.229-1.477,4.237-3.3,4.481s-3.3-1.369-3.3-3.606,1.477-4.243,3.3-4.481,3.3,1.372,3.3,3.606" transform="translate(-38.872 -269.371)" fill="#373433"/>
      <path d="M70.4,436.9a3.594,3.594,0,0,1-2.7,3.671c-1.495.2-2.7-1.122-2.7-2.954a3.578,3.578,0,0,1,2.7-3.668c1.488-.194,2.7,1.125,2.7,2.951" transform="translate(-40.569 -270.832)" fill="#2b2726"/>
      <path d="M70.893,438.521a2.6,2.6,0,0,1-1.959,2.66c-1.084.141-1.959-.813-1.959-2.141a2.6,2.6,0,0,1,1.959-2.66c1.084-.15,1.959.81,1.959,2.141" transform="translate(-41.802 -272.35)" fill="#d4d5d5"/>
      <path d="M4.278,351.064c1.424.5,8.824,3.738,8.824,3.738l.716,3.051-3.738,5.03s-8.243-3.738-9.074-4.214A4.275,4.275,0,0,1,0,355.794c0-2.361,1.562-4.481,3.486-4.739a2.847,2.847,0,0,1,.793.009" transform="translate(0 -219.09)" fill="#2b2726"/>
      <path d="M29.113,364.466c0,2.361-1.565,4.475-3.488,4.731s-3.491-1.45-3.491-3.812,1.565-4.484,3.491-4.739,3.488,1.45,3.488,3.82" transform="translate(-13.814 -225.075)" fill="#373433"/>
      <path d="M30.733,366.245c0,1.932-1.283,3.665-2.857,3.879s-2.86-1.192-2.86-3.121,1.283-3.677,2.86-3.882,2.857,1.187,2.857,3.125" transform="translate(-15.613 -226.623)" fill="#2b2726"/>
      <path d="M31.253,367.96a2.749,2.749,0,0,1-2.07,2.81c-1.145.153-2.073-.855-2.073-2.261a2.743,2.743,0,0,1,2.073-2.81c1.142-.158,2.07.855,2.07,2.261" transform="translate(-16.92 -228.234)" fill="#8e8e8f"/>
      <path d="M48.417,387.8,46.8,413.38l-3.465-1.8V386.142l0-.053v-.071c0-.073.006-.167.006-.311a15.586,15.586,0,0,0-2.026-7.541c-1.621-2.7-8.545-5.013-8.545-5.013l-3.577-1.882,1.1-3.459a16.7,16.7,0,0,1,13.6,8.845" transform="translate(-18.222 -229.563)" fill="#d4d5d5"/>
      <path d="M52.263,417.353V391.92l.006-.056s0-.009,0-.079v-.3a15.431,15.431,0,0,0-2.023-7.541c-1.853-3.095-5.171-6.1-12.116-6.907l.329-2.96c7.729.84,12.14,4.525,14.354,8.351a18.488,18.488,0,0,1,2.44,9.056c0,.253-.006.441-.015.522v25.345Z" transform="translate(-23.799 -233.474)" fill="#8e8e8f"/>
      <path d="M81.231,438.268c1.348.47,8.348,3.547,8.348,3.547l.672,2.881-3.53,4.757s-7.793-3.538-8.586-4a4.01,4.01,0,0,1-.949-2.713c0-2.229,1.483-4.237,3.3-4.475a2.6,2.6,0,0,1,.74,0" transform="translate(-48.175 -273.521)" fill="#2b2726"/>
      <path d="M104.72,450.937c0,2.234-1.48,4.24-3.3,4.481s-3.295-1.369-3.295-3.609,1.474-4.232,3.295-4.481,3.3,1.38,3.3,3.609" transform="translate(-61.243 -279.177)" fill="#373433"/>
      <path d="M106.239,452.619a3.579,3.579,0,0,1-2.7,3.671c-1.489.2-2.7-1.122-2.7-2.954a3.592,3.592,0,0,1,2.7-3.665c1.494-.2,2.7,1.122,2.7,2.948" transform="translate(-62.935 -280.642)" fill="#2b2726"/>
      <path d="M106.727,454.239a2.593,2.593,0,0,1-1.956,2.66c-1.081.153-1.958-.813-1.958-2.138a2.6,2.6,0,0,1,1.958-2.66c1.084-.144,1.956.822,1.956,2.138" transform="translate(-64.169 -282.162)" fill="#d4d5d5"/>
      <path d="M107.532,456.874a1,1,0,0,1-.758,1.019c-.414.056-.752-.308-.752-.822a1,1,0,0,1,.752-1.019c.417-.059.758.314.758.822" transform="translate(-66.172 -284.633)" fill="#241e1c"/>
      <path d="M42.184,367.69c1.421.493,8.821,3.738,8.821,3.738l.713,3.051-3.729,5.027s-8.242-3.735-9.082-4.223a4.242,4.242,0,0,1-1-2.863c0-2.361,1.559-4.487,3.488-4.739a2.451,2.451,0,0,1,.79.009" transform="translate(-23.658 -229.464)" fill="#2b2726"/>
      <path d="M67.017,381.082c0,2.372-1.562,4.487-3.491,4.739s-3.485-1.45-3.485-3.811,1.559-4.481,3.485-4.74,3.491,1.451,3.491,3.812" transform="translate(-37.473 -235.451)" fill="#373433"/>
      <path d="M68.628,382.872c0,1.932-1.283,3.671-2.857,3.885s-2.857-1.192-2.857-3.13,1.28-3.668,2.857-3.873,2.857,1.184,2.857,3.119" transform="translate(-39.267 -237.003)" fill="#2b2726"/>
      <path d="M69.146,384.576a2.747,2.747,0,0,1-2.073,2.81c-1.145.15-2.073-.866-2.073-2.261a2.764,2.764,0,0,1,2.073-2.822c1.145-.153,2.073.866,2.073,2.273" transform="translate(-40.569 -238.598)" fill="#d4d5d5"/>
      <path d="M69.99,387.363a1.056,1.056,0,0,1-.8,1.078c-.441.053-.8-.335-.8-.872a1.053,1.053,0,0,1,.8-1.078c.438-.056.8.332.8.872" transform="translate(-42.69 -241.218)" fill="#241e1c"/>
    </g>
  </g>
</svg>
