<svg xmlns="http://www.w3.org/2000/svg" width="562.046" height="564.493" viewBox="0 0 562.046 564.493">
  <path d="M419.825,314.619l-26.519,45.907a26.481,26.481,0,0,1-35.993,9.762L234.572,299.428a45.493,45.493,0,0,0-21.288-6,46.026,46.026,0,0,0-24.6,6.011L66.13,370.187a26.46,26.46,0,0,1-36.18-9.7L3.472,314.619a26.7,26.7,0,0,1,9.691-36.134l122.569-70.754a47.193,47.193,0,0,0,22.944-39.739l.005-141.509A26.457,26.457,0,0,1,185.175,0h52.956A26.52,26.52,0,0,1,264.563,25.76V167.992a46.334,46.334,0,0,0,22.963,39.719l122.733,70.86A26.573,26.573,0,0,1,419.825,314.619Z" transform="translate(562.046 254.891) rotate(133)" fill="#fff" opacity="0.1"/>
</svg>
