<svg xmlns="http://www.w3.org/2000/svg" width="365.177" height="410.156" viewBox="0 0 365.177 410.156">
  <path d="M394.836,295.893,369.9,339.068a24.9,24.9,0,0,1-33.85,9.181L220.609,281.606a42.783,42.783,0,0,0-20.021-5.643,43.291,43.291,0,0,0-23.136,5.653L62.193,348.154a24.886,24.886,0,0,1-34.027-9.124l-24.9-43.137a25.109,25.109,0,0,1,9.115-33.984l115.273-66.543a44.377,44.377,0,0,0,21.579-37.373l0-133.086A24.884,24.884,0,0,1,174.154,0h49.8a24.942,24.942,0,0,1,24.858,24.226V157.993a43.573,43.573,0,0,0,21.6,37.355L385.84,261.991A24.991,24.991,0,0,1,394.836,295.893Z" transform="matrix(0.035, 0.999, -0.999, 0.035, 351.282, 0)" fill="#fff" opacity="0.1"/>
</svg>
