<svg xmlns="http://www.w3.org/2000/svg" width="506.599" height="488.842" viewBox="0 0 506.599 488.842">
  <path id="パス_25242" data-name="パス 25242" d="M385.683,289.033l-24.362,42.174a24.328,24.328,0,0,1-33.066,8.968l-112.76-65.1a41.793,41.793,0,0,0-19.557-5.512,42.287,42.287,0,0,0-22.6,5.522l-112.588,65a24.309,24.309,0,0,1-33.238-8.913L3.19,289.033a24.527,24.527,0,0,1,8.9-33.2l112.6-65a43.351,43.351,0,0,0,21.078-36.507l0-130A24.307,24.307,0,0,1,170.117,0h48.65a24.364,24.364,0,0,1,24.282,23.665V154.33a42.562,42.562,0,0,0,21.1,36.489l112.751,65.1A24.412,24.412,0,0,1,385.683,289.033Z" transform="translate(506.599 300.298) rotate(151)" fill="#fff" opacity="0.1"/>
</svg>
