<svg xmlns="http://www.w3.org/2000/svg" width="426.464" height="415.332" viewBox="0 0 426.464 415.332">
  <path id="パス_1173" data-name="パス 1173" d="M320.523,240.2l-20.246,35.049A20.218,20.218,0,0,1,272.8,282.7l-93.71-54.1a34.732,34.732,0,0,0-16.252-4.581,35.143,35.143,0,0,0-18.781,4.589L50.488,282.627a20.2,20.2,0,0,1-27.623-7.407L2.651,240.2a20.383,20.383,0,0,1,7.4-27.588L103.628,158.6a36.027,36.027,0,0,0,17.517-30.339l0-108.038A20.2,20.2,0,0,1,141.376,0h40.43a20.248,20.248,0,0,1,20.18,19.667v108.59a35.372,35.372,0,0,0,17.532,30.324l93.7,54.1A20.288,20.288,0,0,1,320.523,240.2Z" transform="matrix(-0.839, 0.545, -0.545, -0.839, 426.464, 239.306)" fill="#fff" opacity="0.1"/>
</svg>
