<svg xmlns="http://www.w3.org/2000/svg" width="337.663" height="331.81" viewBox="0 0 337.663 331.81">
  <path d="M251.79,188.693l-15.9,27.533A15.882,15.882,0,0,1,214.3,222.08l-73.614-42.5a27.285,27.285,0,0,0-12.767-3.6,27.605,27.605,0,0,0-14.754,3.605l-73.5,42.431a15.869,15.869,0,0,1-21.7-5.818L2.083,188.693A16.012,16.012,0,0,1,7.9,167.021l73.51-42.435a28.3,28.3,0,0,0,13.761-23.833l0-84.87A15.869,15.869,0,0,1,111.059,0h31.76a15.906,15.906,0,0,1,15.852,15.449v85.3a27.787,27.787,0,0,0,13.772,23.822l73.608,42.5A15.937,15.937,0,0,1,251.79,188.693Z" transform="matrix(-0.799, 0.602, -0.602, -0.799, 337.663, 179.015)" fill="#fff" opacity="0.1"/>
</svg>
