<svg xmlns="http://www.w3.org/2000/svg" width="684.526" height="709.392" viewBox="0 0 684.526 709.392">
  <path id="パス_1179" data-name="パス 1179" d="M540.073,404.734,505.959,463.79a34.066,34.066,0,0,1-46.3,12.559l-157.9-91.157a58.522,58.522,0,0,0-27.385-7.719,59.214,59.214,0,0,0-31.646,7.733L85.071,476.218a34.04,34.04,0,0,1-46.543-12.48l-34.06-59a34.345,34.345,0,0,1,12.467-46.485l157.676-91.02a60.7,60.7,0,0,0,29.516-51.121l.006-182.04A34.038,34.038,0,0,1,238.215,0h68.124a34.117,34.117,0,0,1,34,33.138V216.109a59.6,59.6,0,0,0,29.542,51.1l157.885,91.156A34.184,34.184,0,0,1,540.073,404.734Z" transform="translate(684.526 233.092) rotate(119)" fill="#fff" opacity="0.1"/>
</svg>
