<svg xmlns="http://www.w3.org/2000/svg" viewBox="0 0 43.45 43.448">
  <path d="M30.168,42.449l-4.72-17.619a2.733,2.733,0,0,1,.706-2.637l5.953-5.953a1.573,1.573,0,0,0,0-2.227l-2.228-2.229a1.574,1.574,0,0,0-2.227,0L21.7,17.736a2.731,2.731,0,0,1-1.218.7L15.538,0H34.3A8.148,8.148,0,0,1,42.45,8.149V34.3A8.148,8.148,0,0,1,34.3,42.449Zm-22.02,0A8.147,8.147,0,0,1,0,34.3V8.149A8.148,8.148,0,0,1,8.148,0h7.39l4.942,18.44a2.727,2.727,0,0,1-1.418,0l-8.133-2.178A1.575,1.575,0,0,0,9,17.379L8.183,20.42A1.576,1.576,0,0,0,9.3,22.352L17.43,24.53a2.738,2.738,0,0,1,1.931,1.93l4.285,15.989Z" transform="translate(0.5 0.5)" fill="#fff" stroke="rgba(0,0,0,0)" stroke-miterlimit="10" stroke-width="1"/>
</svg>
